<svg width="390" height="212" viewBox="0 0 390 212" fill="none" xmlns="http://www.w3.org/2000/svg">
    <path opacity="0.3" fill-rule="evenodd" clip-rule="evenodd" d="M390 41.6752L381 56.1709C371 70.6667 353 99.6581 334 103.282C316 105.094 297 85.1624 279 81.5385C260 77.9145 241 92.4103 223 99.6581C204 105.094 186 105.094 167 96.0342C149 85.1624 130 63.4188 111 63.4188C93 63.4188 74 85.1624 56 112.342C37 141.333 19 175.761 9 193.88L0 212L-8.97734e-09 -1.29479e-06L9 -1.29517e-06C19 -1.29559e-06 37 -1.29635e-06 56 -1.29716e-06C74 -1.29792e-06 93 -1.29873e-06 111 -1.29949e-06C130 -1.30029e-06 149 -1.3011e-06 167 -1.30186e-06C186 -1.30266e-06 204 -1.30343e-06 223 -1.30423e-06C241 -1.30499e-06 260 -1.3058e-06 279 -1.3066e-06C297 -1.30736e-06 316 -1.30817e-06 334 -1.30893e-06C353 -1.30974e-06 371 -1.3105e-06 381 -1.31092e-06L390 -1.3113e-06L390 41.6752Z" fill="#43969B"/>
</svg>
    