<svg width="935" height="572" viewBox="0 0 935 572" fill="none" xmlns="http://www.w3.org/2000/svg">
    <g clip-path="url(#clip0_21_1864)">
    <path d="M733.518 89.2063C733.518 89.2063 712.937 91.53 711.609 123.397C710.503 149.953 708.244 164.752 719.047 170.293C722.909 172.273 727.451 172.447 731.574 171.091L775.675 156.592C775.675 156.592 776.339 108.791 761.07 97.1731C745.8 85.5549 733.518 89.2063 733.518 89.2063Z" fill="#36344E"/>
    <path d="M757.828 162.459L735.51 169.797V137.671H755.758L757.828 162.459Z" fill="#FAAFB2"/>
    <path d="M689.602 344.84C688.393 352.201 683.483 357.479 678.638 356.629C673.792 355.779 670.846 349.124 672.057 341.76C672.499 338.812 673.665 336.024 675.457 333.631L680.989 302.515L696.044 305.664L688.991 336.005C689.918 338.876 690.128 341.906 689.602 344.84Z" fill="#FAAFB2"/>
    <path d="M740.702 551.766H719.796L707.673 440.069H739.985L740.702 551.766Z" fill="#FAAFB2"/>
    <path d="M699.438 569.72C697.239 569.72 695.283 569.666 693.809 569.53C688.254 569.021 682.957 564.923 680.294 562.525C679.1 561.451 678.716 559.733 679.338 558.252C679.784 557.189 680.676 556.397 681.785 556.081L696.457 551.889L720.215 535.859L720.48 536.334C720.579 536.512 722.912 540.714 723.694 543.556C723.991 544.637 723.913 545.537 723.461 546.231C723.148 546.714 722.715 546.994 722.361 547.154C722.792 547.605 724.139 548.516 728.289 549.179C734.354 550.14 735.623 543.863 735.674 543.595L735.714 543.384L735.894 543.268C738.779 541.41 740.552 540.564 741.167 540.746C741.549 540.86 742.189 541.051 743.908 558.157C744.082 558.692 745.289 562.63 744.468 566.393C743.574 570.49 725.688 569.08 722.111 568.756C722.009 568.769 708.616 569.72 699.438 569.72Z" fill="#36344E"/>
    <path d="M787.929 551.766H767.023L754.9 440.069H787.212L787.929 551.766Z" fill="#FAAFB2"/>
    <path d="M746.665 569.72C744.466 569.72 742.51 569.666 741.036 569.53C735.481 569.021 730.184 564.923 727.521 562.525C726.327 561.451 725.943 559.733 726.565 558.252C727.011 557.189 727.903 556.397 729.012 556.081L743.684 551.889L767.442 535.859L767.707 536.334C767.806 536.512 770.139 540.714 770.921 543.556C771.218 544.637 771.14 545.537 770.688 546.231C770.375 546.714 769.942 546.994 769.588 547.154C770.019 547.605 771.366 548.516 775.516 549.179C781.581 550.14 782.85 543.863 782.901 543.595L782.941 543.384L783.121 543.268C786.007 541.41 787.783 540.568 788.393 540.746C788.776 540.86 789.416 541.051 791.135 558.157C791.309 558.692 792.516 562.63 791.695 566.393C790.802 570.489 772.914 569.08 769.337 568.756C769.236 568.769 755.842 569.72 746.665 569.72Z" fill="#36344E"/>
    <path d="M793.942 277.421H692.365L728.88 157.256H769.378L793.942 277.421Z" fill="#DFDFE0"/>
    <path d="M735.27 157.274C735.27 157.274 710.042 156.61 707.386 163.249C704.731 169.888 673.527 327.896 673.527 327.896H694.108L735.27 157.274Z" fill="#DFDFE0"/>
    <path d="M738.273 146.564C750.556 146.564 760.513 136.607 760.513 124.324C760.513 112.04 750.556 102.083 738.273 102.083C725.989 102.083 716.032 112.04 716.032 124.324C716.032 136.607 725.989 146.564 738.273 146.564Z" fill="#FAAFB2"/>
    <path d="M732.19 97.505C732.19 97.505 719.95 147.202 733.56 170.438L714.39 166.367C714.39 166.367 706.962 111.972 721.9 102.083L732.19 97.505Z" fill="#36344E"/>
    <path d="M772.833 277.421H706.175L669.701 427.108C669.031 433.43 673.04 439.329 679.182 440.973C699.195 446.332 747.207 453.923 819.883 432.777C826.876 430.742 830.845 423.365 828.65 416.419L772.833 277.421Z" fill="#36344E"/>
    <path d="M745.881 157.256L766.615 156.343C775.593 157.021 783.712 161.908 788.526 169.517C803.172 192.672 830.59 241.489 806.112 248.176C773.855 256.988 758.226 207.938 758.226 207.938L745.881 157.256Z" fill="#DFDFE0"/>
    <path d="M738.765 171.798C734.506 165.675 734.351 158.468 738.42 155.702C742.488 152.936 749.238 155.659 753.499 161.785C755.236 164.208 756.341 167.02 756.723 169.986L774.43 196.164L761.436 204.391L745.359 177.711C742.694 176.297 740.433 174.27 738.765 171.798Z" fill="#FAAFB2"/>
    <path d="M749.248 192.974L763.879 179.506L792.81 206.442L765.905 224.835L749.248 192.974Z" fill="#DFDFE0"/>
    <path d="M491.677 126.627H32.4081C14.5096 126.627 0 141.137 0 159.035V159.035C0 176.934 14.5096 191.443 32.4081 191.443H491.677C509.575 191.443 524.085 176.934 524.085 159.035C524.085 141.137 509.575 126.627 491.677 126.627Z" fill="#469399"/>
    <path d="M268.875 290.402C252.642 290.402 239.436 277.196 239.436 260.963C239.436 244.73 252.642 231.523 268.875 231.523C285.108 231.523 298.314 244.73 298.314 260.963C298.314 277.196 285.108 290.402 268.875 290.402ZM268.875 239.523C257.053 239.523 247.436 249.141 247.436 260.963C247.436 272.785 257.053 282.402 268.875 282.402C280.697 282.402 290.314 272.785 290.314 260.963C290.314 249.141 280.697 239.523 268.875 239.523Z" fill="#469399"/>
    <path d="M324.408 314.512C323.486 314.512 322.56 314.195 321.806 313.548L284.593 281.639C282.916 280.201 282.722 277.675 284.16 275.998C285.598 274.322 288.123 274.127 289.8 275.565L327.013 307.475C328.69 308.913 328.884 311.438 327.446 313.116C326.655 314.038 325.535 314.512 324.408 314.512Z" fill="#469399"/>
    <path d="M203.307 569.946C203.307 570.606 203.837 571.136 204.497 571.136H933.787C934.447 571.136 934.977 570.606 934.977 569.946C934.977 569.286 934.447 568.756 933.787 568.756H204.497C203.837 568.756 203.307 569.286 203.307 569.946Z" fill="#484565"/>
    <path d="M519.97 93.9528H424.613C422.34 93.9528 420.498 95.7951 420.498 98.0678V98.0678C420.498 100.341 422.34 102.183 424.613 102.183H519.97C522.242 102.183 524.085 100.341 524.085 98.0678C524.085 95.7951 522.242 93.9528 519.97 93.9528Z" fill="#DFDFE0"/>
    <path d="M99.4717 0H4.11505C1.84237 0 0 1.84237 0 4.11505V4.11507C0 6.38775 1.84237 8.23012 4.11505 8.23012H99.4717C101.744 8.23012 103.587 6.38775 103.587 4.11505C103.587 1.84237 101.744 0 99.4717 0Z" fill="#DFDFE0"/>
    <path d="M283.993 35.9144H4.11505C1.84237 35.9144 0 37.7568 0 40.0295V40.0295C0 42.3022 1.84237 44.1446 4.11505 44.1446H283.993C286.266 44.1446 288.108 42.3022 288.108 40.0295C288.108 37.7568 286.266 35.9144 283.993 35.9144Z" fill="#DFDFE0"/>
    </g>
    <defs>
    <clipPath id="clip0_21_1864">
    <rect width="934.977" height="571.136" fill="white"/>
    </clipPath>
    </defs>
    </svg>
    